# xmcd
#
# Track frame offsets: 
#        150
#        13512
#        23810
#        34015
#        46677
#        56515
#        68690
#        81337
#        90482
#        104875
#        116707
#        131290
#        142352
#        155455
#        168857
#        177777
#        193577
#        203710
#        213807
#        226065
#        237515
#
# Disc length: 3343 seconds
#
# Revision: 5
# Processed by: cddbd v1.5.2PL0 Copyright (c) Steve Scherf et al.
# Submitted via: ExactAudioCopy v1.0b1
#
DISCID=160d0d15
DTITLE=Various Artist - Northern Soul Dancefloor Classics Vol. 2
DYEAR=1995
DGENRE=Soul
TTITLE0=First Choice - This Is The House Where Love Died
TTITLE1=M.V.P.'s - Turning My Heartbeat Up
TTITLE2=Al Wilson - Help Me
TTITLE3=Leon Young Strings - Glad All Over
TTITLE4=Billy Harner - Sally Saying Something
TTITLE5=Chris Farlowe - Don't Just Look At Me
TTITLE6=Chuck Jackson - Good Things Come To Those Who Wait
TTITLE7=Adam's Apples - Don't Take It Out Of This World
TTITLE8=Wayne Gibson - Under My Thumb
TTITLE9=Charts - Living The Nightlife
TTITLE10=Linda Jones And The Whatnauts - I'm So Glad I Found You
TTITLE11=Jackie Wilson - I Don't Want To Lose You
TTITLE12=Shirelles - Last Minute Miracle
TTITLE13=Maxine Brown - One In A Million
TTITLE14=Billy Thompson - Black Eyed Girl
TTITLE15=Devonnes - I'm Gonna Pick Up My Toys (Alt Take)
TTITLE16=Carmen Taylor - You're Puttin' Me On
TTITLE17=Marvin Smith - Have More Time
TTITLE18=Curtis Blandon - In The Long Run
TTITLE19=Tony Lamarr - Just In The Nick Of Time
TTITLE20=Young Holt Unlimited - California Montage
EXTD=YEAR: 1995 ID3G: 42
EXTT0=
EXTT1=
EXTT2=
EXTT3=
EXTT4=
EXTT5=
EXTT6=
EXTT7=
EXTT8=
EXTT9=
EXTT10=
EXTT11=
EXTT12=
EXTT13=
EXTT14=
EXTT15=
EXTT16=
EXTT17=
EXTT18=
EXTT19=
EXTT20=
PLAYORDER=
